<svg width="656" height="115" viewBox="0 0 656 115" fill="none" xmlns="http://www.w3.org/2000/svg">
<path d="M5.21875 108H0.21875V113H5.21875V108ZM5.21875 6.46875V1.46875H0.21875V6.46875H5.21875ZM74.4766 6.46875L74.5188 1.46893L74.4977 1.46875H74.4766V6.46875ZM99.7891 12.2344L97.0629 16.4258L97.0707 16.4309L97.0784 16.4359L99.7891 12.2344ZM110.336 31.0781L115.326 30.7662L115.314 30.579L115.289 30.3932L110.336 31.0781ZM89.8047 56.4609L88.2413 51.7117L84.8047 52.8429V56.4609H89.8047ZM89.8047 56.7422H84.8047V61.1492L89.1768 61.7026L89.8047 56.7422ZM100.07 59.7656L97.8611 64.2511L97.8882 64.2644L97.9154 64.2774L100.07 59.7656ZM107.945 65.1797L104.41 68.7152L104.449 68.7545L104.489 68.7929L107.945 65.1797ZM108.508 98.1562L104.972 94.6207L104.962 94.6308L104.952 94.641L108.508 98.1562ZM92.6875 106.242L91.7274 101.335L91.7207 101.337L92.6875 106.242ZM69.2734 108L69.3245 103L69.2989 103H69.2734V108ZM40.2344 68.6953V63.6953H35.2344V68.6953H40.2344ZM40.2344 87.4688H35.2344V92.4688H40.2344V87.4688ZM62.8047 87.4688L62.9853 82.472L62.895 82.4688H62.8047V87.4688ZM77.3594 78.1875L72.3819 77.7135L72.3594 77.9499V78.1875H77.3594ZM73.7734 71.2266L71.0696 75.4325L71.0865 75.4433L71.1035 75.454L73.7734 71.2266ZM40.2344 31.0781V26.0781H35.2344V31.0781H40.2344ZM40.2344 46.4766H35.2344V51.4766H40.2344V46.4766ZM69.1328 44.3672L72.5525 48.0149L72.5824 47.9869L72.6118 47.9584L69.1328 44.3672ZM71.5234 38.6016L76.5196 38.7975L76.5301 38.5302L76.512 38.2634L71.5234 38.6016ZM68.7812 32.7656L65.8978 36.8505L65.9256 36.8701L65.9536 36.8893L68.7812 32.7656ZM10.2188 108V6.46875H0.21875V108H10.2188ZM5.21875 11.4688H74.4766V1.46875H5.21875V11.4688ZM74.4344 11.4686C85.1222 11.5588 92.4487 13.4247 97.0629 16.4258L102.515 8.04294C95.5982 3.54404 86.0496 1.56624 74.5188 1.46893L74.4344 11.4686ZM97.0784 16.4359C101.336 19.1825 104.303 23.9508 105.383 31.7631L115.289 30.3932C113.932 20.5805 109.867 12.7863 102.5 8.03289L97.0784 16.4359ZM105.346 31.39C105.715 37.2945 104.43 41.1622 102.244 43.7224L109.85 50.2151C114.227 45.0878 115.801 38.3617 115.326 30.7662L105.346 31.39ZM102.244 43.7224C99.8059 46.5785 95.3724 49.3641 88.2413 51.7117L91.3681 61.2102C99.3307 58.589 105.725 55.0465 109.85 50.2151L102.244 43.7224ZM84.8047 56.4609V56.7422H94.8047V56.4609H84.8047ZM89.1768 61.7026C92.3667 62.1064 95.2496 62.9648 97.8611 64.2511L102.28 55.2802C98.6098 53.4727 94.649 52.3155 90.4326 51.7818L89.1768 61.7026ZM97.9154 64.2774C100.627 65.5727 102.763 67.068 104.41 68.7152L111.481 61.6442C108.909 59.0726 105.794 56.9585 102.225 55.2538L97.9154 64.2774ZM104.489 68.7929C106.195 70.4246 107.474 72.2386 108.372 74.2492L117.503 70.1727C116.057 66.9333 114.008 64.0597 111.401 61.5665L104.489 68.7929ZM108.372 74.2492C109.296 76.3197 109.695 78.2058 109.695 79.9453H119.695C119.695 76.6223 118.923 73.3521 117.503 70.1727L108.372 74.2492ZM109.695 79.9453C109.695 87.1418 107.853 91.7395 104.972 94.6207L112.043 101.692C117.412 96.323 119.695 88.7801 119.695 79.9453H109.695ZM104.952 94.641C101.673 97.9576 97.3498 100.235 91.7274 101.335L93.6476 111.149C100.963 109.718 107.186 106.605 112.063 101.672L104.952 94.641ZM91.7207 101.337C85.7379 102.516 78.2957 103.092 69.3245 103L69.2224 113C78.6262 113.096 86.7933 112.5 93.6543 111.148L91.7207 101.337ZM69.2734 103H5.21875V113H69.2734V103ZM35.2344 68.6953V87.4688H45.2344V68.6953H35.2344ZM40.2344 92.4688H62.8047V82.4688H40.2344V92.4688ZM62.6241 92.4655C67.3786 92.6373 71.796 91.6018 75.6623 89.1698L70.3377 80.7052C68.3915 81.9295 66.012 82.5814 62.9853 82.472L62.6241 92.4655ZM75.6623 89.1698C79.5527 86.7226 82.3594 83.0691 82.3594 78.1875H72.3594C72.3594 78.6497 72.2598 79.4962 70.3377 80.7052L75.6623 89.1698ZM82.3369 78.6615C82.5555 76.3655 82.2126 74.0661 81.1187 71.9426C80.0345 69.8381 78.3743 68.2186 76.4434 66.9991L71.1035 75.454C71.8444 75.922 72.1178 76.3064 72.229 76.5222C72.3304 76.719 72.4445 77.0564 72.3819 77.7135L82.3369 78.6615ZM76.4772 67.0207C72.7363 64.6158 68.0012 63.6953 62.8047 63.6953V73.6953C66.9832 73.6953 69.5605 74.4623 71.0696 75.4325L76.4772 67.0207ZM62.8047 63.6953H40.2344V73.6953H62.8047V63.6953ZM35.2344 31.0781V46.4766H45.2344V31.0781H35.2344ZM40.2344 51.4766H64.8438V41.4766H40.2344V51.4766ZM64.8438 51.4766C67.9912 51.4766 70.5891 49.8555 72.5525 48.0149L65.7131 40.7195C65.2249 41.1772 64.893 41.3818 64.7289 41.4625C64.5831 41.5342 64.6372 41.4766 64.8438 41.4766V51.4766ZM72.6118 47.9584C75.1706 45.4795 76.3834 42.2712 76.5196 38.7975L66.5273 38.4056C66.476 39.7131 66.095 40.3486 65.6538 40.776L72.6118 47.9584ZM76.512 38.2634C76.2641 34.6065 74.9559 30.9371 71.6089 28.642L65.9536 36.8893C65.9818 36.9086 66.0616 36.96 66.1719 37.1947C66.3006 37.4686 66.4716 38.0055 66.5349 38.9398L76.512 38.2634ZM71.6647 28.6808C69.8225 27.3804 67.4295 26.0781 64.7734 26.0781V36.0781C64.4592 36.0781 64.3903 36.0015 64.6437 36.1082C64.8878 36.211 65.3015 36.4295 65.8978 36.8505L71.6647 28.6808ZM64.7734 26.0781H40.2344V36.0781H64.7734V26.0781ZM119.688 108H114.688V113H119.688V108ZM119.688 6.46875V1.46875H114.688V6.46875H119.688ZM206.734 6.46875H211.734V1.46875H206.734V6.46875ZM206.734 36.7031V41.7031H211.734V36.7031H206.734ZM152.734 36.7031V31.7031H147.734V36.7031H152.734ZM152.734 48.375H147.734V53.375H152.734V48.375ZM187.609 48.375H192.609V43.375H187.609V48.375ZM187.609 66.0938V71.0938H192.609V66.0938H187.609ZM152.734 66.0938V61.0938H147.734V66.0938H152.734ZM152.734 77.7656H147.734V82.7656H152.734V77.7656ZM215.312 77.7656H220.312V72.7656H215.312V77.7656ZM215.312 108V113H220.312V108H215.312ZM124.688 108V6.46875H114.688V108H124.688ZM119.688 11.4688H206.734V1.46875H119.688V11.4688ZM201.734 6.46875V36.7031H211.734V6.46875H201.734ZM206.734 31.7031H152.734V41.7031H206.734V31.7031ZM147.734 36.7031V48.375H157.734V36.7031H147.734ZM152.734 53.375H187.609V43.375H152.734V53.375ZM182.609 48.375V66.0938H192.609V48.375H182.609ZM187.609 61.0938H152.734V71.0938H187.609V61.0938ZM147.734 66.0938V77.7656H157.734V66.0938H147.734ZM152.734 82.7656H215.312V72.7656H152.734V82.7656ZM210.312 77.7656V108H220.312V77.7656H210.312ZM215.312 103H119.688V113H215.312V103ZM315.438 77.7656H320.438V72.7656H315.438V77.7656ZM315.438 108V113H320.438V108H315.438ZM240.555 102.164L238.533 106.737L238.543 106.742L238.553 106.746L240.555 102.164ZM219.461 84.5156L215.274 87.2485L215.28 87.2573L215.285 87.266L219.461 84.5156ZM216.367 34.4531L211.882 32.2439L211.878 32.2508L211.875 32.2577L216.367 34.4531ZM229.164 18.8438L232.186 22.8272L232.197 22.819L232.208 22.8107L229.164 18.8438ZM247.867 9.5625L249.245 14.3689L249.256 14.3659L249.266 14.3629L247.867 9.5625ZM315.438 6.46875H320.438V1.46875H315.438V6.46875ZM315.438 36.7031V41.7031H320.438V36.7031H315.438ZM248.008 57.5156L243.015 57.2508L243.003 57.4807L243.012 57.7108L248.008 57.5156ZM283.656 82.7656H315.438V72.7656H283.656V82.7656ZM310.438 77.7656V108H320.438V77.7656H310.438ZM315.438 103H270.438V113H315.438V103ZM270.438 103C260.019 103 250.752 101.163 242.556 97.5822L238.553 106.746C248.17 110.947 258.825 113 270.438 113V103ZM242.576 97.591C234.512 94.0258 228.243 88.7594 223.637 81.7652L215.285 87.266C220.991 95.9281 228.785 102.427 238.533 106.737L242.576 97.591ZM223.648 81.7828C219.173 74.9264 216.797 66.3401 216.797 55.7578H206.797C206.797 67.863 209.53 78.4486 215.274 87.2485L223.648 81.7828ZM216.797 55.7578C216.797 48.4369 218.193 42.1045 220.859 36.6486L211.875 32.2577C208.448 39.2705 206.797 47.1412 206.797 55.7578H216.797ZM220.853 36.6624C223.612 31.0595 227.384 26.4701 232.186 22.8272L226.142 14.8603C220.069 19.4674 215.31 25.2842 211.882 32.2439L220.853 36.6624ZM232.208 22.8107C237.115 19.0457 242.776 16.2234 249.245 14.3689L246.489 4.75609C238.896 6.93284 232.088 10.298 226.12 14.8768L232.208 22.8107ZM249.266 14.3629C255.854 12.443 262.904 11.4688 270.438 11.4688V1.46875C262.033 1.46875 254.036 2.55697 246.468 4.76214L249.266 14.3629ZM270.438 11.4688H298.281V1.46875H270.438V11.4688ZM298.281 11.4688H315.438V1.46875H298.281V11.4688ZM310.438 6.46875V36.7031H320.438V6.46875H310.438ZM315.438 31.7031H283.656V41.7031H315.438V31.7031ZM283.656 31.7031C276.494 31.7031 270.966 31.9122 267.224 32.3735L268.448 42.2984C271.55 41.9159 276.568 41.7031 283.656 41.7031V31.7031ZM267.224 32.3735C263.498 32.8329 260.065 33.612 256.967 34.7536L260.424 44.137C262.669 43.3099 265.33 42.6827 268.448 42.2984L267.224 32.3735ZM256.967 34.7536C253.389 36.0716 250.328 38.333 247.777 41.3484L255.411 47.8078C256.984 45.9483 258.658 44.7878 260.424 44.137L256.967 34.7536ZM247.777 41.3484C244.6 45.1024 243.355 50.8448 243.015 57.2508L253.001 57.7804C253.317 51.8114 254.462 48.9289 255.411 47.8078L247.777 41.3484ZM243.012 57.7108C243.259 64.0461 244.521 69.7193 247.758 73.5906L255.429 67.175C254.354 65.8901 253.225 62.9851 253.004 57.3205L243.012 57.7108ZM247.758 73.5906C250.536 76.9121 254.025 79.2136 258.153 80.3394L260.784 70.6918C258.725 70.1301 256.964 69.0097 255.429 67.175L247.758 73.5906ZM258.153 80.3394C261.522 81.2583 264.984 81.8936 268.534 82.2486L269.529 72.2983C266.516 71.997 263.603 71.4604 260.784 70.6918L258.153 80.3394ZM268.534 82.2486C272.07 82.6023 277.147 82.7656 283.656 82.7656V72.7656C277.228 72.7656 272.555 72.6008 269.529 72.2983L268.534 82.2486ZM405.578 103.852L403.538 99.2865L403.529 99.2906L405.578 103.852ZM342.719 103.852L340.641 108.399L340.655 108.406L340.67 108.413L342.719 103.852ZM322.891 86.2734L318.562 88.7766L318.569 88.7879L322.891 86.2734ZM320.008 35.4375L324.648 37.3003L324.653 37.2886L320.008 35.4375ZM349.609 9.14062L351.097 13.9141L351.111 13.9097L351.125 13.9053L349.609 9.14062ZM405.578 11.7422L403.498 16.289L403.508 16.2936L403.518 16.2982L405.578 11.7422ZM425.758 29.4609L421.457 32.0107L421.464 32.022L425.758 29.4609ZM356.57 75.0938L352.287 77.6723L352.296 77.6875L352.305 77.7027L356.57 75.0938ZM388.844 78.5391L385.817 74.5593L385.803 74.5697L385.79 74.5802L388.844 78.5391ZM395.031 69.8906L390.189 68.6454L390.182 68.6699L390.176 68.6945L395.031 69.8906ZM396.719 58.0781L401.709 58.3837L401.725 58.1232L401.714 57.8625L396.719 58.0781ZM392.008 41.0625L387.695 43.5922L387.7 43.6013L387.706 43.6104L392.008 41.0625ZM427.719 57.7969C427.719 68.2067 425.549 76.751 421.457 83.6534L430.059 88.7528C435.248 79.999 437.719 69.6058 437.719 57.7969H427.719ZM421.457 83.6534C417.376 90.5366 411.468 95.7437 403.538 99.2865L407.618 108.417C417.314 104.084 424.858 97.5259 430.059 88.7528L421.457 83.6534ZM403.529 99.2906C395.556 102.872 385.813 104.758 374.148 104.758V114.758C386.859 114.758 398.069 112.706 407.627 108.413L403.529 99.2906ZM374.148 104.758C362.484 104.758 352.741 102.872 344.768 99.2906L340.67 108.413C350.228 112.706 361.438 114.758 374.148 114.758V104.758ZM344.797 99.3039C336.947 95.7168 331.155 90.5351 327.212 83.759L318.569 88.7879C323.626 97.4805 331.053 104.018 340.641 108.399L344.797 99.3039ZM327.219 83.7703C323.255 76.916 321.141 68.3353 321.141 57.7969H311.141C311.141 69.6647 313.526 80.0683 318.562 88.7766L327.219 83.7703ZM321.141 57.7969C321.141 49.8107 322.355 43.0126 324.648 37.3003L315.368 33.5747C312.505 40.7062 311.141 48.8143 311.141 57.7969H321.141ZM324.653 37.2886C326.956 31.5085 330.289 26.7292 334.646 22.8659L328.011 15.3841C322.43 20.3333 318.216 26.429 315.363 33.5864L324.653 37.2886ZM334.646 22.8659C339.016 18.9905 344.461 15.9826 351.097 13.9141L348.122 4.36712C340.32 6.79869 333.578 10.447 328.011 15.3841L334.646 22.8659ZM351.125 13.9053C357.765 11.7927 365.42 10.6953 374.148 10.6953V0.695312C364.596 0.695312 355.891 1.8948 348.093 4.376L351.125 13.9053ZM374.148 10.6953C385.747 10.6953 395.482 12.6219 403.498 16.289L407.658 7.19534C398.05 2.80001 386.831 0.695312 374.148 0.695312V10.6953ZM403.518 16.2982C411.458 19.8877 417.373 25.1223 421.457 32.0107L430.059 26.9112C424.861 18.1433 417.324 11.5654 407.638 7.18621L403.518 16.2982ZM421.464 32.022C425.548 38.871 427.719 47.3858 427.719 57.7969H437.719C437.719 45.9892 435.249 35.6133 430.052 26.8999L421.464 32.022ZM347.211 58.0781C347.211 65.3582 348.842 71.9508 352.287 77.6723L360.854 72.5152C358.486 68.5805 357.211 63.8293 357.211 58.0781H347.211ZM352.305 77.7027C356.58 84.6918 364.546 87.3359 373.938 87.3359V77.3359C366.079 77.3359 362.467 75.152 360.836 72.4848L352.305 77.7027ZM373.938 87.3359C381.077 87.3359 387.352 86.0048 391.898 82.498L385.79 74.5802C383.773 76.1359 380.11 77.3359 373.938 77.3359V87.3359ZM391.871 82.5188C395.871 79.4764 398.752 75.6893 399.886 71.0867L390.176 68.6945C389.717 70.5607 388.473 72.5392 385.817 74.5593L391.871 82.5188ZM399.874 71.1358C400.819 67.4598 401.415 63.1902 401.709 58.3837L391.728 57.7726C391.46 62.1536 390.931 65.759 390.189 68.6454L399.874 71.1358ZM401.714 57.8625C401.403 50.6583 399.652 44.1583 396.31 38.5146L387.706 43.6104C390.082 47.6229 391.472 52.4667 391.723 58.2938L401.714 57.8625ZM396.321 38.5328C392.1 31.3377 383.737 28.75 373.938 28.75V38.75C382.513 38.75 386.196 41.0373 387.695 43.5922L396.321 38.5328ZM373.938 28.75C365.769 28.75 358.771 31.0626 353.913 36.5015C349.152 41.8328 347.211 49.3287 347.211 58.0781H357.211C357.211 50.6088 358.891 45.9407 361.372 43.1625C363.757 40.4921 367.622 38.75 373.938 38.75V28.75ZM437.641 108H432.641V113H437.641V108ZM437.641 6.46875V1.46875H432.641V6.46875H437.641ZM545.289 33.2578L540.731 35.3139L540.738 35.3281L540.744 35.3423L545.289 33.2578ZM549.578 57.5859L554.57 57.8647L554.578 57.7254V57.5859H549.578ZM518.992 105.188L517.411 100.444L517.4 100.448L518.992 105.188ZM495.859 108L495.96 103.001L495.91 103H495.859V108ZM471.531 31.6406V26.6406H466.531V31.6406H471.531ZM471.531 82.6875H466.531V87.6875H471.531V82.6875ZM501.414 79.9453L504.237 84.0718L504.262 84.0551L504.286 84.0381L501.414 79.9453ZM507.953 72.8438L512.259 75.385L512.268 75.3698L512.277 75.3544L507.953 72.8438ZM511.188 57.2344L516.178 57.5463L516.191 57.3391L516.186 57.1317L511.188 57.2344ZM508.305 42.1172L503.884 44.4537L503.904 44.4916L503.925 44.5292L508.305 42.1172ZM501.555 34.4531L498.749 38.5917L498.773 38.6081L498.798 38.6242L501.555 34.4531ZM442.641 108V6.46875H432.641V108H442.641ZM437.641 11.4688H497.547V1.46875H437.641V11.4688ZM497.547 11.4688C505.224 11.4688 511.797 12.4906 517.347 14.4246L520.638 4.98161C513.812 2.60315 506.088 1.46875 497.547 1.46875V11.4688ZM517.347 14.4246C523.042 16.4092 527.698 19.0295 531.418 22.2182L537.926 14.6256C533.115 10.5017 527.318 7.30959 520.638 4.98161L517.347 14.4246ZM531.418 22.2182C535.019 25.3047 538.156 29.6056 540.731 35.3139L549.847 31.2017C546.797 24.4413 542.856 18.8515 537.926 14.6256L531.418 22.2182ZM540.744 35.3423C543.199 40.6948 544.578 48.0191 544.578 57.5859H554.578C554.578 47.184 553.098 38.2896 549.834 31.1734L540.744 35.3423ZM544.586 57.3072C544.091 66.1681 542.617 73.4567 540.293 79.2895L549.582 82.9918C552.414 75.887 554.034 67.4725 554.57 57.8647L544.586 57.3072ZM540.293 79.2895C537.941 85.1894 534.926 89.5881 531.371 92.7135L537.973 100.224C542.949 95.8494 546.777 90.0294 549.582 82.9918L540.293 79.2895ZM531.371 92.7135C527.676 95.962 523.058 98.5617 517.411 100.444L520.573 109.931C527.301 107.688 533.137 104.476 537.973 100.224L531.371 92.7135ZM517.4 100.448C511.986 102.266 504.894 103.182 495.96 103.001L495.758 112.999C505.387 113.193 513.718 112.234 520.584 109.927L517.4 100.448ZM495.859 103H437.641V113H495.859V103ZM466.531 31.6406V82.6875H476.531V31.6406H466.531ZM471.531 87.6875H490.867V77.6875H471.531V87.6875ZM490.867 87.6875C495.892 87.6875 500.491 86.6356 504.237 84.0718L498.591 75.8188C496.994 76.9113 494.561 77.6875 490.867 77.6875V87.6875ZM504.286 84.0381C507.551 81.7468 510.216 78.8469 512.259 75.385L503.647 70.3025C502.315 72.5593 500.621 74.3938 498.542 75.8525L504.286 84.0381ZM512.277 75.3544C514.604 71.3463 515.706 65.09 516.178 57.5463L506.197 56.9225C505.731 64.3788 504.677 68.5287 503.629 70.3331L512.277 75.3544ZM516.186 57.1317C516.041 50.0591 515.063 44.0237 512.684 39.7052L503.925 44.5292C505.109 46.6794 506.053 50.7222 506.189 57.3371L516.186 57.1317ZM512.725 39.7807C510.647 35.8482 507.857 32.6257 504.312 30.282L498.798 38.6242C500.783 39.9368 502.494 41.8237 503.884 44.4537L512.725 39.7807ZM504.36 30.3146C500.532 27.7192 495.853 26.6406 490.727 26.6406V36.6406C494.506 36.6406 497.046 37.4371 498.749 38.5917L504.36 30.3146ZM490.727 26.6406H471.531V36.6406H490.727V26.6406ZM554.5 108H549.5V113H554.5V108ZM554.5 6.46875V1.46875H549.5V6.46875H554.5ZM641.547 6.46875H646.547V1.46875H641.547V6.46875ZM641.547 36.7031V41.7031H646.547V36.7031H641.547ZM587.547 36.7031V31.7031H582.547V36.7031H587.547ZM587.547 48.375H582.547V53.375H587.547V48.375ZM622.422 48.375H627.422V43.375H622.422V48.375ZM622.422 66.0938V71.0938H627.422V66.0938H622.422ZM587.547 66.0938V61.0938H582.547V66.0938H587.547ZM587.547 77.7656H582.547V82.7656H587.547V77.7656ZM650.125 77.7656H655.125V72.7656H650.125V77.7656ZM650.125 108V113H655.125V108H650.125ZM559.5 108V6.46875H549.5V108H559.5ZM554.5 11.4688H641.547V1.46875H554.5V11.4688ZM636.547 6.46875V36.7031H646.547V6.46875H636.547ZM641.547 31.7031H587.547V41.7031H641.547V31.7031ZM582.547 36.7031V48.375H592.547V36.7031H582.547ZM587.547 53.375H622.422V43.375H587.547V53.375ZM617.422 48.375V66.0938H627.422V48.375H617.422ZM622.422 61.0938H587.547V71.0938H622.422V61.0938ZM582.547 66.0938V77.7656H592.547V66.0938H582.547ZM587.547 82.7656H650.125V72.7656H587.547V82.7656ZM645.125 77.7656V108H655.125V77.7656H645.125ZM650.125 103H554.5V113H650.125V103Z" fill="#DAA520"/>
</svg>
